<?xml version="1.0" ?><!DOCTYPE svg  PUBLIC '-//W3C//DTD SVG 1.1//EN'  'http://www.w3.org/Graphics/SVG/1.1/DTD/svg11.dtd'><svg height="256px" style="shape-rendering:geometricPrecision; text-rendering:geometricPrecision; image-rendering:optimizeQuality; fill-rule:evenodd; clip-rule:evenodd" version="1.1" viewBox="0 0 256001 256001" width="256px" xml:space="preserve" xmlns="http://www.w3.org/2000/svg" xmlns:xlink="http://www.w3.org/1999/xlink"><defs><style type="text/css">
   <![CDATA[
    .fil2 {fill:none}
    .fil0 {fill:#00599D}
    .fil1 {fill:#FFFFFE}
   ]]>
  </style></defs><g id="Layer_x0020_1"><polygon class="fil0" points="256001,253278 256001,2724 256001,0 253278,0 2724,0 0,0 0,2724 0,253278 0,256001 2724,256001 253278,256001 256001,256001 "/><path class="fil1" d="M83136 193061l21203 -70952 21204 70952 583 1947 2024 0 1585 0 2027 0 580 -1957 32534 -109797 552 -938 20569 0 -19857 34328 -373 1361 0 7615 0 2713 2724 0 6348 0 0 11c3715,0 6898,552 9543,1654 2543,1059 4620,2638 6226,4734l11 12c1426,1840 2502,4077 3226,6711 750,2729 1126,5916 1126,9561 0,3298 -352,6316 -1053,9055 -697,2717 -1741,5202 -3133,7456 -1323,2142 -2761,3727 -4314,4756 -1419,938 -2970,1408 -4652,1408 -1788,0 -3442,-292 -4965,-873 -1522,-582 -2937,-1461 -4245,-2635l-10 0c-1368,-1226 -2620,-2707 -3758,-4442 -1158,-1767 -2177,-3776 -3061,-6027l-1013 -2584 -2562 1063 -13011 5397 -2332 966 789 2396c1386,4209 3166,8013 5338,11413 2187,3423 4755,6397 7703,8921 3001,2563 6270,4491 9808,5783 3537,1291 7311,1939 11319,1939 5334,0 10199,-1087 14595,-3263 4376,-2163 8242,-5394 11598,-9689l10 0c3290,-4228 5759,-8945 7403,-14154 1632,-5161 2448,-10790 2448,-16887 0,-4918 -561,-9549 -1683,-13896 -1124,-4349 -2814,-8383 -5073,-12106 -2296,-3788 -5136,-6987 -8520,-9597 -2548,-1966 -5398,-3595 -8548,-4885l21860 -37677 373 -1362 0 -7775 0 -2724 -2724 0 -45725 0 -16170 0 -489 0 -2030 0 -575 1959 -20417 69394 -21107 -71422 -18577 72 -3649 0 1044 3499 7389 24793 -12717 43074 -20411 -69410 -575 -1959 -2030 0 -16668 0 -3640 0 1033 3491 38092 128567 580 1957 2027 0 1587 0 2025 0 581 -1947z"/></g><rect class="fil2" height="256000" width="256000" y="1"/></svg>